<?xml version="1.0" encoding="utf-8"?>
<!-- Generator: Adobe Illustrator 28.0.0, SVG Export Plug-In . SVG Version: 6.00 Build 0)  -->
<svg version="1.1" id="Capa_1" xmlns="http://www.w3.org/2000/svg" xmlns:xlink="http://www.w3.org/1999/xlink" x="0px" y="0px"
	 viewBox="0 0 963.76 546.57" style="enable-background:new 0 0 963.76 546.57;" xml:space="preserve">
<style type="text/css">
	.st0{clip-path:url(#SVGID_00000058551960402306131020000014844678989527522445_);}
	.st1{clip-path:url(#SVGID_00000096029750113257765300000016515019961583970450_);}
	.st2{clip-path:url(#SVGID_00000166636419467099123730000013576172151816925878_);}
	.st3{clip-path:url(#SVGID_00000002354591368515629070000004889423082549781649_);}
	.st4{fill:#101A2B;}
	.st5{fill:#FFFFFF;}
	.st6{fill-rule:evenodd;clip-rule:evenodd;fill:#FFFFFF;}
	.st7{fill:#E75E0D;}
	.st8{fill:none;}
	.st9{fill:#E95D0C;}
	.st10{fill:url(#SVGID_00000171717309300200679180000010030144252949795241_);}
	.st11{fill:url(#SVGID_00000040574959442600569910000012865288792729099160_);}
	.st12{fill:url(#SVGID_00000125573091662491005370000005166276071059899034_);}
	.st13{fill:url(#SVGID_00000163047193626466278970000006887465994594053766_);}
	.st14{fill:#7A97AB;}
</style>
<path class="st4" d="M792.06,238.58c-1.08-7.06-3.2-13.81-6.18-20.28c-3.77-8.19-8.72-15.6-14.83-22.26
	c-7.8-8.5-16.84-15.35-27.05-20.66c-12.95-6.74-26.8-10.56-41.24-12.31c-6.38-0.77-12.79-1.09-19.23-1.09
	C549.12,162,414.7,162,280.28,161.99c-7.28,0-14.51,0.46-21.73,1.43c-6.03,0.82-11.98,2.01-17.83,3.68
	c-15.06,4.3-28.72,11.24-40.58,21.58c-8.23,7.19-14.98,15.56-20.17,25.18c-2.94,5.45-5.15,11.2-6.78,17.16
	c-1.36,4.97-2.12,10.07-2.32,15.24c-0.2,5.26,0.11,10.47,1.11,15.63c1.26,6.51,3.37,12.73,6.66,18.5c3.39,5.96,7.87,10.95,13.41,15
	c6.22,4.55,13.06,7.7,20.62,9.24c2.48,0.5,4.98,0.89,7.46,1.37c0.46,0.09,0.89,0.38,1.43,0.62c0,1.67,0.05,3.27-0.01,4.87
	c-0.07,1.65,0.37,3.37-0.6,4.98c-0.69,0.06-1.36,0.15-2.03,0.16c-2.54,0.04-5.07,0.07-7.61,0.08c-1.11,0-2.19,0.05-3.14,0.71
	c-0.54,1.41-0.54,1.41-1.76,1.82c-0.64,0.21-1.29,0.4-1.92,0.64c-0.52,0.19-0.83,0.6-0.78,1.17c0.04,0.48,0.15,0.96,0.23,1.44
	c0.52,0.12,0.95,0.17,1.33,0.33c0.19,0.08,0.4,0.36,0.41,0.55c0.01,0.18-0.22,0.5-0.39,0.54c-0.82,0.16-1.66,0.26-2.49,0.35
	c-0.68,0.07-1.35,0.15-1.87,0.95c0.01,1.51-0.24,3.18,0.25,5c1.4,0.22,2.8,0.43,4.45,0.69c-0.75,0.49-1.27,0.83-1.85,1.2
	c0.03,0.69,0.07,1.35,0.1,2.1c1.16,0.17,2.23,0.32,3.46,0.5c0.26,0.66,0.47,1.38,0.83,2.03c0.15,0.28,0.59,0.4,0.92,0.6
	c0.49-1.06,0.91-1.95,1.32-2.83c0.93-0.05,1.69-0.11,2.44-0.12c0.24,0,0.47,0.11,0.82,0.19c-1.59,3.01-1.18,6.28-1.38,9.49
	c-0.68,0.42-1.31,0.81-1.88,1.16c-0.29,2.24-0.12,10.85,0.22,12.44c0.24,0.06,0.48,0.11,0.73,0.18c0.31,0.09,0.62,0.21,1.02,0.34
	c0.03,0.88,0.03,1.72,0.11,2.56c0.08,0.84,0.17,1.68,0.38,2.49c0.51,1.96,1.25,2.28,3.15,1.47c0.39-0.17,0.76-0.36,1.14-0.55
	c2.04-1.01,4.1-1.98,6.12-3.05c2.65-1.4,2.38-0.7,3.51-3.92c0.47-1.35,1-2.67,1.54-4.11c0.91-0.03,1.75-0.08,2.58-0.08
	c1.77,0.01,3.55,0.04,5.32,0.06c1.81,1.28,3.57-0.13,5.37-0.12c17.33,0.09,34.66,0.05,51.99,0.06c0.74,0,1.49,0.08,2.17,0.11
	c1.49,3.76,0.6,7.61,1,10.98c0.6,0.68,0.9,1.28,1.38,1.49c0.58,0.25,1.31,0.23,1.98,0.23c11.16,0.01,22.32,0.01,33.48,0
	c0.67,0,1.33-0.08,1.89-0.11c1.83-1.83,2.3-1.32,2.13-4.37c-0.01-0.17-0.02-0.35,0.04-0.5c0.13-0.3,0.25-0.64,0.47-0.86
	c0.34-0.33,0.99-0.33,1.04-0.98c0.07-0.8-0.76-0.8-1.12-1.22c-0.11-0.12-0.22-0.25-0.48-0.54c0-0.49-0.02-1.17,0.01-1.84
	c0.03-0.73,0.11-1.46,0.16-2.14c2.39-0.36,12.98-0.36,15.06-0.03c0.94,1.3,0.65,3.11,1.78,4.48c2.2-0.84,1.47-3.03,2.24-4.59
	c2.73-0.26,5.46-0.19,8.16,0.26c0.13,0.79,0.25,1.44,0.35,2.08c0.66,0.33,1.24,0.62,1.94,0.97c-0.13,2.45,0.18,4.88-0.16,7.23
	c-0.7,0.39-1.28,0.72-1.85,1.04c0,1.08,0,2.07,0,2.96c0.81,0.85,2.07,0.61,2.66,1.59c0.12,0.19,0.64,0.22,0.95,0.18
	c0.57-0.08,1.12-0.28,1.69-0.41c1.14-0.26,2.22-0.62,3.22,0.54c0.63,0.72,1.81,0.59,2.7-0.17c0.5-0.43,0.99-0.58,1.59-0.59
	c0.76-0.01,1.52-0.03,2.28,0c1.5,0.05,2.98-0.1,4.48,0.48c0.85,0.33,1.98-0.01,2.98-0.11c0.57-0.06,1.13-0.34,1.7-0.35
	c2.37-0.04,4.74-0.08,7.1,0.01c1.07,0.04,2.13,0.54,3.19,0.54c1.15-0.01,2.29-0.5,3.45-0.54c2.45-0.09,4.9-0.05,7.35-0.01
	c0.48,0.01,0.96,0.29,1.45,0.34c1,0.1,2.12,0.44,2.98,0.12c2.16-0.81,4.35-0.33,6.51-0.47c0.52-0.03,0.9,0.21,1.32,0.57
	c0.98,0.85,1.75,0.78,2.85-0.02c0.26-0.19,0.54-0.5,0.82-0.51c0.99-0.03,2.03-0.33,2.97,0.24c0.79,0.49,1.61,0.41,2.44,0.2
	c0.49-1.15,1.97-0.85,2.66-1.82c0-0.96,0-1.95,0-3c-0.65-0.33-1.24-0.62-1.97-0.98c0-0.95-0.06-1.96,0.03-2.96
	c0.04-0.47,0.24-1.09,0.59-1.33c0.73-0.51,1.41-1.19,2.44-1.19c0.66,0,1.33-0.19,1.98-0.35c1.09-0.26,2.16-0.22,3.26,0.01
	c0.98,0.2,2,0.32,3,0.34c2.11,0.05,4.23,0.02,6.34,0.01c0.59,0,1.22,0.08,1.76-0.1c1.84-0.61,3.61-0.3,5.48-0.03
	c1.79,0.26,3.13,0.97,4.46,2.29c0,1.3,0,2.73,0,4.11c0.53,0.57,0.97,1.05,1.31,1.43c12.47,0,24.73,0,36.9,0
	c1.08-0.9,1.7-1.86,1.5-3.27c-0.12-0.82-0.02-1.67-0.02-2.3c1.61-1.63,3.29-2.32,5.36-2.15c1.34,0.11,2.7,0.02,4.06,0.02
	c1.35,0,2.68,0,4.02-0.37c0.78-0.22,1.73-0.29,2.5-0.06c1.75,0.51,3.51,0.42,5.28,0.44c1.69,0.01,3.38-0.04,5.07,0.02
	c1.95,0.06,3.04,1.23,3.09,3.21c0.02,0.75,0,1.5,0,2.16c-0.8,0.46-1.43,0.82-1.98,1.13c0,1.16,0,2.15,0,3.01
	c0.79,0.77,1.92,0.61,2.43,1.56c0.11,0.21,0.61,0.31,0.92,0.28c0.57-0.04,1.15-0.16,1.7-0.32c1.39-0.41,2.69-0.72,3.96,0.43
	c0.78,0.71,1.8,0.58,2.72-0.1c0.26-0.19,0.52-0.55,0.77-0.55c2.17,0.01,4.37-0.46,6.52,0.28c1.15,0.39,2.32,0.35,3.48,0.03
	c1.83-0.51,8.56-0.58,10.26-0.07c1.24,0.38,2.46,0.41,3.71,0.02c0.63-0.2,1.31-0.31,1.96-0.33c2.11-0.04,4.23-0.02,6.34-0.01
	c0.42,0,0.89-0.07,1.26,0.09c1.64,0.71,3.25,0.76,4.88,0c0.22-0.1,0.5-0.09,0.75-0.09c1.69,0,3.38-0.01,5.07,0.01
	c0.51,0,1.01,0.08,1.32,0.59c0.37,0.6,1,0.55,1.59,0.56c0.61,0.01,1.14-0.11,1.48-0.74c0.12-0.23,0.57-0.36,0.87-0.38
	c0.75-0.05,1.5-0.15,2.22,0.29c0.76,0.47,1.61,0.42,2.45,0.17c0.52-1.14,2.06-0.68,2.74-1.78c0.06-0.9,0.17-1.9-0.12-2.87
	c-0.65-0.35-1.23-0.67-1.76-0.96c-0.3-3.14-0.25-6.71,0.08-7.38c0.59-0.29,1.18-0.59,1.71-0.85c0.13-0.8,0.24-1.44,0.35-2.15
	c2.76-0.28,5.43-0.47,8.21-0.17c0.3,1.32,0.48,2.41,0.82,3.44c0.21,0.61,0.64,1.21,1.54,0.96c0.92-1.32,0.67-3.12,1.73-4.53
	c2.45,0,4.9-0.04,7.34,0.01c2.5,0.05,5.03-0.23,7.6,0.21c0.03,1.71,0.4,3.27-0.34,4.82c-0.23,0.47-0.21,1.24,0.02,1.71
	c0.43,0.9,0.43,1.8,0.39,2.72c-0.04,0.93,0.26,1.63,1.01,2.19c0.46,0.35,0.87,0.77,1.23,1.1c12.48,0,24.82,0,37.21,0
	c0.44-0.49,0.88-0.98,1.53-1.7c0-1.57,0.06-3.43-0.02-5.28c-0.08-1.95,0.27-3.8,0.92-5.78c0.95,0,1.87,0,2.79,0
	c16.91,0,33.82,0,50.72,0.01c1.26,0,2.53-0.13,3.73,0.47c0.34,0.17,0.91,0.19,1.22,0.01c1.19-0.69,2.47-0.5,3.71-0.48
	c1.76,0.03,3.53-0.23,5.34,0.22c0.64,1.76,1.3,3.5,1.91,5.25c0.32,0.94,0.88,1.57,1.79,2c2.21,1.05,4.39,2.17,6.58,3.26
	c0.53,0.26,1.06,0.53,1.59,0.78c2.37,1.09,3.11,0.73,3.65-1.89c0.17-0.82,0.19-1.67,0.27-2.51c0.06-0.66,0.1-1.31,0.15-1.96
	c0.71-0.25,1.31-0.46,1.85-0.65c0.26-4.03,0.23-10.66-0.05-12.31c-0.6-0.4-1.22-0.8-1.96-1.29c0-1.61,0.13-3.23-0.04-4.81
	c-0.16-1.55-0.62-3.06-0.95-4.61c1.13,0,2.22,0.02,3.31,0c1.86-0.03,3.71-0.07,5.57-0.14c0.22-0.01,0.44-0.19,0.72-0.31
	c0-0.68,0-1.34,0-1.96c-0.58-0.37-1.09-0.7-1.82-1.18c1.68-0.36,3.16-0.24,4.49-0.82c0.51-1.18,0.27-2.38,0.28-3.55
	c0.03-1.82-0.22-2.06-1.94-2.25c-0.75-0.09-1.52-0.12-2.26-0.26c-0.34-0.06-0.64-0.33-1.32-0.7c0.93-0.31,1.46-0.48,1.99-0.68
	c0.22-0.08,0.41-0.24,0.65-0.39c0.03-0.44,0.08-0.86,0.06-1.28c-0.01-0.24-0.12-0.48-0.21-0.84c-1.22-0.43-2.47-0.87-3.7-1.3
	c-0.2-0.54-0.37-1-0.55-1.51c-0.48-0.17-0.94-0.4-1.43-0.49c-0.58-0.1-1.18-0.09-1.77-0.1c-2.45-0.03-4.9-0.04-7.35-0.08
	c-0.75-0.01-1.5-0.11-2.38-0.17c-0.14-0.73-0.37-1.38-0.37-2.03c0.01-2.68-0.22-5.36,0.14-7.91c0.31-0.21,0.44-0.35,0.59-0.38
	c1.99-0.38,3.97-0.78,5.96-1.12c2.66-0.45,5.3-0.99,7.85-1.92c3.02-1.1,6.01-2.27,8.82-3.82c7.45-4.12,13.65-9.61,18.23-16.85
	c5.55-8.77,8.18-18.48,8.99-28.71C793.17,248.67,792.83,243.61,792.06,238.58z M742.22,186.53c0,0.02,0,0.04,0,0.06
	c-0.27,0-0.54,0-0.8,0c0-0.02,0-0.04,0-0.06C741.69,186.53,741.96,186.53,742.22,186.53z M230.55,343.75c0-0.03,0-0.06,0-0.09
	c0.63,0,1.25,0,1.88,0c0,0.03,0,0.06,0.01,0.09C231.8,343.75,231.17,343.75,230.55,343.75z M233.58,335.74
	c-1.39,0.43-2.69,0.21-4.11,0.18c-0.23-1.6,0.23-2.43,1.49-2.82c0.71-0.22,1.4-0.52,2.17-0.82
	C233.97,333.38,233.62,334.52,233.58,335.74z M250.9,326.58c-0.81,0-1.64,0-2.57,0c-0.11-0.56-0.22-1.03-0.3-1.51
	c-0.33-2.11-0.33-2.11-2.4-3.19c-0.08-0.66-0.16-1.38-0.24-2.09c3.15-0.4,10.15-0.31,11.78,0.13
	C256.45,321.32,253.96,323.97,250.9,326.58z M254.71,335.33c1.89-0.58,4.22-0.7,5.47-0.16
	C258.43,335.44,256.73,335.42,254.71,335.33z M263.58,335.25c-0.03,0.06-0.39,0.06-0.44-0.01c-0.33-0.46,0.05-0.69,0.7-0.8
	C263.75,334.72,263.7,335,263.58,335.25z M287.61,336.03c-3.71-0.1-7.42-0.03-11.14-0.03c-0.75,0-1.49,0.05-2.08-0.64
	c-0.22-0.26-0.74-0.33-1.14-0.37c-0.74-0.07-1.49-0.06-2.73-0.1c0.34-0.62,0.42-1.04,0.63-1.12c0.46-0.16,0.98-0.2,1.48-0.21
	c3.12-0.02,6.24-0.02,9.37-0.01c1.55,0.01,1.55,0.02,2.91,1.36c0.26-0.27,0.49-0.57,0.77-0.81c0.25-0.21,0.56-0.48,0.84-0.48
	c1.68-0.04,3.37-0.05,5.05,0.03c0.27,0.01,0.52,0.51,0.84,0.85C290.88,335.55,289.38,336.07,287.61,336.03z M296.91,326.66
	c-0.23-0.57,0.32-0.6,0.61-0.81c0.13-0.1,0.31-0.12,0.46-0.2c1.39-0.74,1.39-0.74,2-2.33c0.63,0,1.27,0,1.97,0
	c0.45,1.1,0.49,2.16,0.58,3.34C300.59,326.66,298.76,326.66,296.91,326.66z M318.17,325.54c-1.34,0.73-1.43-1.19-2.53-0.86
	c0.18-1.11,0.31-1.93,0.43-2.73c0.39-0.23,0.74-0.44,1.2-0.71c0.35,0.59,0.71,1.19,1.06,1.78
	C317.4,324.14,317.4,324.14,318.17,325.54z M361.58,335.91c-2.01,0.06-3.9,0.31-5.79-0.2c-0.18-0.72-0.34-1.37-0.49-1.98
	c0.18-0.15,0.29-0.32,0.42-0.33c1.94-0.24,3.84,0.06,5.86,0.54C361.58,334.53,361.58,335.14,361.58,335.91z M366.75,333.88
	c-0.13,0.02-0.28-0.09-0.42-0.15c0.08-0.11,0.17-0.21,0.25-0.32c0.15,0.06,0.29,0.12,0.43,0.18
	C366.92,333.69,366.85,333.86,366.75,333.88z M367.18,324.98c-0.04,0.66-0.51,0.8-1.18,0.49c-0.22-0.79-0.46-1.65-0.73-2.61
	c-2.1,0.54-1.74,2.36-2.26,3.64c-1.84,0.35-5.15,0.39-7.72,0.08c-0.44-1.73-0.5-3.99-0.16-6.8c0.45-0.06,0.93-0.17,1.41-0.17
	c2.44-0.02,4.89-0.02,7.33-0.02c0.62,0,1.15,0.11,1.33,0.85c0.23,0.96,1.32,0.54,2,1.2C367.2,322.66,367.25,323.82,367.18,324.98z
	 M370.83,325.33c-0.22-1.4-0.23-2.45-0.03-3.64c0.8,0,1.51,0,2.29,0c0.39,1.1,0.25,2.16,0.15,3.39
	C372.48,325.16,371.78,325.23,370.83,325.33z M372.92,333.43c-0.6,0.98-0.6,0.98-2.1,0C371.62,333.43,372.26,333.43,372.92,333.43z
	 M373.26,363.34c-0.82,0-1.54,0-2.45,0c-0.1-2.29-0.16-4.53,0.05-6.97c0.9,0,1.55,0,2.33,0
	C373.49,358.71,373.42,360.95,373.26,363.34z M384.11,360.7c-0.77,0.69-0.18,1.56-0.27,2.46c-1.98,0.53-3.95,0.28-5.93,0.16
	c-0.68-1.17-0.33-2.37-0.38-3.51c-0.05-1.07-0.14-2.17,0.21-3.49c2.03,0,3.87,0,5.8,0C384.29,357.72,384.3,359.19,384.11,360.7z
	 M377.56,321.82c0.35-0.11,0.59-0.26,0.81-0.24c0.49,0.04,1.17,0.01,1.4,0.3c0.44,0.57-0.38,0.73-0.6,1.1
	c-0.35,0.62-0.48,1.36-0.82,2.41c-0.36-0.26-0.75-0.39-0.8-0.61C377.33,323.8,377.39,322.8,377.56,321.82z M384.1,322.82
	c-0.39-0.06-0.91-0.08-0.95-0.61c-0.05-0.59,0.47-0.64,0.87-0.63c0.46,0.01,0.92,0.16,1.37,0.25
	C385.27,322.74,384.75,322.92,384.1,322.82z M389.62,322.29c-0.13-0.15-0.27-0.31-0.4-0.46c0.15-0.05,0.3-0.16,0.43-0.14
	c0.1,0.02,0.18,0.2,0.25,0.29C389.81,322.09,389.72,322.19,389.62,322.29z M397.63,363.12c-0.98,0.54-1.88,0.24-2.87,0.28
	c0-1.25-0.12-2.39,0.05-3.49c0.09-0.59,0.55-1.27,1.05-1.62c0.39-0.28,1.09-0.13,1.67-0.18
	C398.03,359.89,397.49,361.52,397.63,363.12z M411.66,363.04c-1.89,0.54-7.21,0.57-9.33,0.08c0-1.55,0-3.12,0-4.88
	c1.19-0.29,2.18-0.16,3.18-0.08c0.9,0.08,1.81,0.2,2.67-0.4c0.35-0.25,0.97-0.23,1.44-0.16c0.65,0.11,1.28,0.38,1.89,0.57
	C412.39,359.85,411.04,361.46,411.66,363.04z M422.26,363.36c-1.94,0.15-3.92,0.16-6.01-0.02c-0.06-0.87-0.12-1.65-0.17-2.43
	c-0.05-0.82-0.1-1.65-0.15-2.54c2.15-0.71,4.3,0.01,6.31-0.6C422.7,359.61,422.71,361.1,422.26,363.36z M426.62,363.17
	c-0.19-1.66-0.43-3.34,0.16-5.05c0.76,0,1.42,0,2.09,0c0.12,0.27,0.31,0.49,0.31,0.71c0.03,1.41,0.01,2.81,0.01,4.17
	C428.01,363.41,428.01,363.43,426.62,363.17z M429.02,333.67c-0.63,0.56-1.19,0.36-1.75-0.07
	C427.87,333.28,428.44,333.17,429.02,333.67z M428.24,322.04c0.04-0.16,0.28-0.35,0.46-0.37c0.12-0.01,0.27,0.23,0.49,0.44
	c-0.28,0.18-0.46,0.39-0.63,0.38C428.44,322.49,428.21,322.17,428.24,322.04z M432.64,321.49c0.92-0.39,1.66-0.7,2.45-1.04
	c0,0.62,0,1.26,0,2.02c-0.27,0.09-0.57,0.28-0.85,0.25C433.17,322.64,433.17,322.61,432.64,321.49z M435.02,326.24
	c-0.48-0.25-0.96-0.49-1.44-0.74c0.24-0.8,0.78-0.37,1.17-0.25C435.28,325.41,435.19,325.83,435.02,326.24z M434.88,335.81
	c-0.9-0.18-0.5-1.01-0.87-1.35c-0.34-0.32-0.74-0.57-1.35-1.03c0.95,0,1.58,0,2.27,0C435.29,334.25,435.29,334.99,434.88,335.81z
	 M441.27,356.24c-0.16-0.02-0.29-0.23-0.44-0.36c0.2-0.06,0.4-0.17,0.59-0.17c0.12,0,0.25,0.15,0.44,0.29
	C441.64,356.09,441.45,356.26,441.27,356.24z M447.7,356.66c-0.38,0-0.76,0-1.14,0c0-0.12,0-0.23,0-0.35c0.38,0,0.76,0,1.14,0
	C447.7,356.43,447.7,356.54,447.7,356.66z M450.36,335.19c-3.91,0.87-7.83,0.91-11.75,0.72c-0.64-0.7-0.39-1.45-0.33-2.18
	c0.13-0.11,0.26-0.31,0.38-0.32c3.11-0.03,6.22-0.06,9.33-0.03c0.73,0.01,1.47,0.26,2.36,0.42
	C450.36,334.45,450.36,334.77,450.36,335.19z M450.65,326.4c-1.59,0.45-9.3,0.56-12.27,0.17c-0.22-0.49-0.32-1.01,0.21-1.33
	c0.54-0.32,0.97-0.64,0.97-1.34c0.01-0.86-0.68-1.07-1.27-1.42c0-0.89,0-1.79,0-2.85c2.55-0.15,4.98-0.06,7.52-0.06
	c1.41,1.43,2.81,2.89,4.27,4.3C450.86,324.63,450.98,325.45,450.65,326.4z M452.74,335.51c-0.09-0.01-0.19-0.01-0.28-0.02
	c0.02-0.37,0.05-0.73,0.07-1.09c0.07,0,0.14,0.01,0.21,0.01C452.74,334.78,452.74,335.15,452.74,335.51z M453.42,356.02l-0.18-0.1
	l0.21-0.07L453.42,356.02z M457.01,356.17c-0.27-0.02-0.54-0.04-0.8-0.08c-0.01,0,0.01-0.24,0.02-0.37
	c0.27,0.04,0.55,0.08,0.82,0.12C457.04,355.95,457.03,356.06,457.01,356.17z M461.69,334.57c-0.8,1.07-1.85,1.58-3.25,1.45
	c-1.24-0.12-2.49-0.05-3.71-0.06c-0.54-0.83-0.39-1.56-0.19-2.54c2.49,0,4.82,0,7.35,0C461.81,333.87,461.88,334.31,461.69,334.57z
	 M464.2,326.48c-1.71,0.36-6.43,0.43-9.64,0.11c-0.44-1.06-0.19-2.25-0.25-3.39c-0.06-1.08-0.01-2.17-0.01-3.51
	c0.66-0.05,1.16-0.12,1.65-0.12c2.7-0.01,5.4-0.01,8.05-0.01c0.7,2.38,0.6,3.12-0.56,4.75C463.42,325.13,464.88,325.42,464.2,326.48
	z M508.93,356.76c-0.28-0.07-0.54-0.19-0.81-0.3c0.13-0.1,0.25-0.27,0.38-0.28c0.21-0.01,0.43,0.08,0.68,0.13
	C509.06,356.53,508.96,356.77,508.93,356.76z M509.25,335.88c-2,0-3.84,0-5.87,0c-0.45-0.67-1.61-0.95-1.62-2.34
	c2.46-0.42,4.86-0.17,7.26-0.15C509.58,334.14,509.42,334.88,509.25,335.88z M509.35,326.47c-1.98,0.37-6.84,0.43-9.69,0.14
	c-0.84-1.03,0.47-1.4,0.69-2.25c-0.04-0.73-1.19-1.05-1.02-2.05c0.14-0.81,0.08-1.65,0.1-2.43c2.12-0.41,7.72-0.43,10.16-0.02
	C509.51,322.16,509.43,324.33,509.35,326.47z M511.19,335.52c-0.06,0-0.12,0-0.18,0c0-0.35,0-0.7,0-1.05c0.06,0,0.12,0,0.18,0
	C511.19,334.82,511.19,335.17,511.19,335.52z M514.64,356.28c-0.14-0.11-0.3-0.24-0.45-0.37c0.14-0.08,0.3-0.24,0.42-0.22
	c0.19,0.03,0.35,0.2,0.52,0.3C514.99,356.07,514.85,356.16,514.64,356.28z M523.9,356.8c-0.12,0.01-0.25-0.16-0.37-0.25
	c0.16-0.14,0.3-0.38,0.47-0.39c0.17-0.01,0.36,0.19,0.69,0.39C524.32,356.67,524.11,356.79,523.9,356.8z M525.42,335.64
	c-2.58,0.66-8.06,0.43-12-0.52c0-0.38,0-0.77,0-1.3c3.97-0.92,7.91-0.35,11.88-0.48C525.67,334.2,525.62,334.92,525.42,335.64z
	 M525.54,322.34c-0.19,0.17-0.31,0.28-0.43,0.38c-1.18,0.91-1.3,1.48-0.23,2.31c0.56,0.44,0.8,0.79,0.55,1.43
	c-1.74,0.4-9.45,0.47-12.33,0.1c-0.42-1.23-0.12-2.07,0.72-2.85c1.35-1.26,2.63-2.6,4.06-4.03c2.38-0.19,4.87-0.15,7.5-0.02
	C525.69,320.61,525.58,321.5,525.54,322.34z M529.72,334.5c-0.26,0.36-0.34,0.86-0.54,1.44c-0.54-1.04-0.54-1.04-0.5-2.22
	c0.62-0.63,1.35-0.39,2.22-0.21C530.43,333.88,529.98,334.13,529.72,334.5z M530.63,325.29c-0.9,0.43-1.34,0.64-1.77,0.84
	C528.63,325.19,528.63,325.19,530.63,325.29z M530.39,322.55c-0.46,0.13-0.95,0.13-1.72,0.23c0-0.92,0-1.56,0-2.22
	c0.79,0.29,1.52,0.56,2.23,0.82C531.19,322.01,530.94,322.39,530.39,322.55z M537.14,363.3c-0.87,0-1.59,0-2.41,0
	c-0.51-1.64-0.27-3.27-0.17-4.91c0.86-0.49,1.64-0.4,2.59-0.12c0.04,0.85,0.11,1.66,0.11,2.47
	C537.26,361.56,537.19,362.37,537.14,363.3z M535.08,322.51c-0.12-0.17-0.33-0.34-0.34-0.52c-0.01-0.12,0.25-0.27,0.47-0.49
	c0.15,0.3,0.34,0.49,0.31,0.65C535.5,322.29,535.24,322.39,535.08,322.51z M536.48,333.61c-0.7,0.37-1.21,0.65-1.71,0.04
	C535.27,333.13,535.8,333.27,536.48,333.61z M547.7,363.31c-2.3,0.22-4.29,0.2-6.43,0.03c-0.16-1.8-0.25-3.44,0.07-5.11
	c2.15-0.24,4.21-0.46,6.23-0.69C548.61,359.49,547.12,361.26,547.7,363.31z M552.21,363.13c-0.43-0.74,0.35-1.55-0.25-2.4
	c-0.44-0.61-0.27-1.61,0.03-2.46c1.61-0.48,3.19-0.09,4.76-0.09c1.49,0,2.99-0.18,4.53-0.28c0.75,1.71-0.44,3.46,0.36,5.26
	C558.69,363.59,554.01,363.53,552.21,363.13z M566.02,363.31c0.22-1.81-0.27-3.44,0.18-5.05c0.72-0.24,1.38-0.37,1.92,0.2
	c0.46,0.48,0.89,1,0.83,1.75c-0.04,0.49-0.09,0.99-0.06,1.49c0.03,0.48,0.16,0.96,0.25,1.46
	C568.17,363.61,567.27,363.42,566.02,363.31z M574.1,322.3c-0.09-0.11-0.18-0.22-0.27-0.33c0.18-0.08,0.36-0.17,0.54-0.25
	c0.05,0.13,0.18,0.33,0.14,0.39C574.43,322.21,574.24,322.24,574.1,322.3z M578.61,322.51c-0.11-0.09-0.19-0.29-0.19-0.43
	c0.01-0.13,0.12-0.34,0.23-0.38c0.72-0.21,1.44-0.34,2.2,0.52C579.99,322.84,579.33,323.13,578.61,322.51z M585.88,363.22
	c-1.95,0.43-3.93,0.19-6,0.13c0-2.36,0-4.52,0-6.83c1.99-0.53,3.96-0.25,5.91-0.18C586.31,358.18,586.34,360.87,585.88,363.22z
	 M586.17,325.09c-0.35,0.04-0.67,0.07-1.17,0.13c0.28-1.22,0.23-2.25-1.05-2.73c-0.03-0.01,0.05-0.71,0.22-0.78
	c0.62-0.27,1.28-0.28,1.99,0.22C586.37,322.9,586.34,323.96,586.17,325.09z M592.95,363.46c-0.96-0.05-1.68-0.08-2.53-0.12
	c-0.06-2.4-0.21-4.64,0.13-6.98c0.77,0,1.42,0,2.1,0c0.1,0.22,0.28,0.44,0.29,0.67C592.96,359.05,592.95,361.07,592.95,363.46z
	 M590.41,323.36c-0.01-0.49,0.05-0.98,0.09-1.74c0.91,0,1.56,0,2.27,0c0.47,1.17,0.3,2.29,0.17,3.53c-0.84,0-1.55,0-2.41,0
	C590.48,324.49,590.41,323.93,590.41,323.36z M591.84,334.17c-0.62,0.22-0.89-0.17-1.21-0.75c0.81,0,1.47,0,2.64,0
	C592.5,333.83,592.18,334.04,591.84,334.17z M597.03,333.89c-0.13-0.02-0.24-0.15-0.36-0.24c0.12-0.08,0.26-0.25,0.35-0.22
	c0.15,0.04,0.26,0.21,0.39,0.32C597.28,333.8,597.14,333.91,597.03,333.89z M607.93,335.86c-2.09,0.18-3.89,0.23-5.79-0.03
	c-0.03-0.66-0.06-1.21-0.09-1.79c2.14-0.63,4.16-0.92,6.38-0.57C608.26,334.27,608.11,334.98,607.93,335.86z M608.8,326.4
	c-1.34,0.66-2.7,0.32-4.01,0.35c-1.34,0.03-2.69,0.17-4.03-0.16c-0.22-0.85-0.38-1.68-0.66-2.47c-0.13-0.36-0.46-0.68-0.76-0.95
	c-0.43-0.39-1.02-0.19-1.15,0.38c-0.12,0.49-0.14,1-0.25,1.49c-0.15,0.68-0.62,0.68-1.24,0.44c-0.4-1.28-0.22-2.6-0.12-4.03
	c0.5-0.15,1.03-0.2,1.41-0.46c0.38-0.27,0.6-0.75,0.93-1.19c1.92-0.32,7.67-0.3,9.85,0.09C608.93,322.02,608.81,324.19,608.8,326.4z
	 M644.93,325.77c0.14-0.2,0.21-0.39,0.35-0.49c1.19-0.82,1.21-0.92,0.13-2.37c0.2-0.27,0.41-0.6,0.67-0.87
	c0.63-0.64,1.47-0.43,1.67,0.43c0.15,0.63,0.22,1.29,0.33,1.99C647.07,324.99,646.38,326.06,644.93,325.77z M665.07,326.77
	c-0.59,0.02-1.18,0.02-1.77,0c-0.67-0.02-1.33-0.06-2.11-0.1c0.01-1.17,0.23-2.2,0.51-3.34c0.73-0.04,1.37-0.08,2.34-0.13
	c-0.28,2.42,2.07,2.06,2.99,3.4C666.35,326.86,665.7,326.74,665.07,326.77z M692.55,334.83c-0.49,0.1-1,0.11-1.5,0.12
	c-0.76,0.01-1.47,0.01-2.08,0.65c-0.29,0.3-0.92,0.37-1.39,0.37c-4.14,0.03-8.28-0.01-12.41,0.03c-1.45,0.02-2.51-0.82-3.91-1.38
	c0.35-0.43,0.58-0.97,0.83-0.98c1.68-0.09,3.37-0.05,5.06-0.08c0.84-0.01,0.94,0.86,1.63,1.29c0.21-0.14,0.55-0.26,0.69-0.5
	c0.34-0.59,0.82-0.81,1.46-0.81c3.72,0.01,7.43,0.01,11.15,0.03c0.16,0,0.37,0.03,0.48,0.13c0.17,0.15,0.37,0.37,0.38,0.57
	C692.91,334.47,692.71,334.8,692.55,334.83z M700.27,333.49c0.24,0.94,0.34,1.31,0.44,1.69
	C699.89,335.12,699.89,335.12,700.27,333.49z M704.3,334.81c-0.5,0.05-0.79-0.18-0.6-0.85c2.13-0.28,4.29-0.16,6.36,0.24
	C708.14,334.41,706.22,334.63,704.3,334.81z M718.13,321.89c-1.99,1.03-1.99,1.03-2.69,4.56c-1.4,0.47-2.65,0.4-3.8-0.84
	c-1.71-1.84-3.52-3.59-5.44-5.54c0.46-0.23,0.72-0.48,0.98-0.48c3.53-0.02,7.07-0.01,10.6,0.01c0.15,0,0.31,0.11,0.58,0.21
	C718.29,320.51,718.21,321.23,718.13,321.89z M733.23,343.81c-0.65,0-1.3,0-1.95,0c0.01-0.05,0.02-0.1,0.04-0.15
	c0.64,0,1.27,0,1.91,0C733.23,343.71,733.23,343.76,733.23,343.81z M734.28,335.86c-1.41,0.17-2.64,0.22-3.97-0.04
	c-0.39-1.16-0.34-2.25,0.08-3.47c1.21,0.13,2.18,0.63,3.12,1.1C734.37,333.89,734.44,334.77,734.28,335.86z"/>
<g>
	<path class="st7" d="M406.38,270.84h-42.96c-2.31,0-3.46-1.1-3.46-3.29s1.15-3.29,3.46-3.29h42.96c2.38,0,4.5-0.63,6.36-1.9
		c2.05-1.41,3.07-3.22,3.07-5.41v-7.92c0-2.19-1.02-4-3.07-5.41c-1.86-1.26-3.98-1.9-6.36-1.9h-30.13c-4.32,0-8.05-1.28-11.22-3.85
		c-3.38-2.72-5.08-6.08-5.08-10.1v-7.87c0-4.02,1.69-7.38,5.08-10.1c3.16-2.53,6.9-3.79,11.22-3.79h30.13c2.31,0,3.46,1.1,3.46,3.29
		c0,2.2-1.15,3.29-3.46,3.29h-30.13c-2.34,0-4.44,0.63-6.3,1.9c-2.05,1.45-3.07,3.26-3.07,5.41v7.87c0,2.16,1.02,3.96,3.07,5.41
		c1.86,1.3,3.96,1.95,6.3,1.95h30.13c4.31,0,8.07,1.26,11.27,3.79c3.38,2.72,5.08,6.08,5.08,10.1v7.92c0,4.09-1.75,7.5-5.25,10.21
		C414.29,269.61,410.59,270.84,406.38,270.84z"/>
	<path class="st7" d="M505.08,212.58h-24.5v54.96c0,2.19-1.15,3.29-3.46,3.29s-3.46-1.1-3.46-3.29v-54.96h-24.44
		c-2.31,0-3.46-1.1-3.46-3.29c0-2.19,1.15-3.29,3.46-3.29h55.85c2.31,0,3.46,1.1,3.46,3.29
		C508.53,211.49,507.38,212.58,505.08,212.58z"/>
	<path class="st7" d="M596.73,270.84c-0.97,0-1.82-0.39-2.57-1.17l-26-28.01h-20.31c-2.31,0-3.46-1.1-3.46-3.29
		c0-2.19,1.15-3.29,3.46-3.29h30.13c2.38,0,4.5-0.63,6.36-1.9c2.05-1.41,3.07-3.22,3.07-5.41v-7.81c0-2.19-1.02-4.02-3.07-5.47
		c-1.86-1.26-3.98-1.9-6.36-1.9h-39.51v54.91c0,2.19-1.15,3.29-3.46,3.29c-2.31,0-3.46-1.1-3.46-3.29v-58.2
		c0-2.19,1.15-3.29,3.46-3.29h42.96c4.31,0,8.07,1.28,11.27,3.85c3.38,2.68,5.08,6.05,5.08,10.1v7.81c0,4.02-1.69,7.38-5.08,10.1
		c-3.2,2.53-6.96,3.79-11.27,3.79h-0.56l21.93,23.71c0.59,0.63,0.89,1.34,0.89,2.12C600.25,269.72,599.08,270.84,596.73,270.84z"/>
	<path class="st7" d="M336.6,266.2l-27.9-58.31c-0.67-1.45-1.71-2.18-3.12-2.18c-1.45,0-2.51,0.73-3.18,2.18l-27.9,58.31
		c-0.22,0.45-0.33,0.91-0.33,1.39c0,2.16,1.17,3.24,3.52,3.24c1.49,0,2.53-0.63,3.12-1.9l7.67-16.08l0,0l0,0l1.54-3.22l3.65-7.61
		l0.01-0.03l0,0l10.57-22.04c0.54-1.12,2.14-1.12,2.67,0l11.87,24.86l3.51,7.34l8.05,16.79c0.59,1.26,1.62,1.9,3.07,1.9
		c2.34,0,3.52-1.08,3.52-3.24C336.93,267.12,336.82,266.65,336.6,266.2z"/>
	<g>
		<path class="st7" d="M724.48,247c-5.49,0.43-16.56,0.55-22.07,0.65c-5.45,0.1-10.94-0.24-16.37,0.34
			c-1.56,0.17-3.33,0.58-4.05,1.98c-0.54,1.05-0.3,2.32-0.04,3.47c1.15,5.1,3.53,12.42,4.67,17.53c-0.21-0.34-0.48-0.9-0.78-1.48
			c-0.33-0.63-0.63-1.29-0.93-2.03c-0.37-0.89-0.78-1.7-1-2.16c-0.57-1.17-1.08-2.26-1.58-3.43c-1.05-2.48-2.37-4.92-3.89-7.15
			c-2.84-4.18-7.11-5.93-12.14-6.01c-8.24,0-16.48-0.25-24.72-0.39c-0.06-0.66-0.12-1.32-0.18-1.98c6.61-0.25,13.22-0.51,19.83-0.76
			c1.81-0.07,3.64-0.14,5.38-0.64c3.34-0.96,4.78-3.2,5.36-6.5c0.96-5.43-0.2-10.98-1.36-16.38c1.58,5.85,3.78,11,6.95,16.19
			c1.51,2.48,3.73,5.15,6.5,6.27c2.48,1.01,4.54,0.84,7.68,0.96c3.13,0.12,6.08,0.35,9.15,0.49
			C706.81,246.27,718.5,246.44,724.48,247z"/>
		<path class="st7" d="M664.97,213.71l-2.71-5.67c-0.42-0.91-0.98-1.53-1.69-1.87c-0.43-0.2-0.9-0.31-1.43-0.31
			c-0.36,0-0.7,0.05-1.01,0.14c-0.94,0.27-1.66,0.95-2.17,2.04l-27.9,58.31c-0.22,0.45-0.33,0.91-0.33,1.39
			c0,2.16,1.17,3.24,3.51,3.24h0c1.49,0,2.53-0.63,3.12-1.9l7.44-15.6l0.01-0.02l1.76-3.68l3.65-7.61l0,0l5.9-12.31l0.02-0.04
			l4.66-9.73c0.27-0.56,0.8-0.84,1.34-0.84c0.53,0,1.07,0.28,1.34,0.84l0.01,0.01l7.45,15.61
			C667.95,229.08,666.31,220.16,664.97,213.71z"/>
	</g>
</g>
<path class="st7" d="M223.35,181.51c20.12-8.13,41.89-11.86,63.58-11.84c128.8,1.03,260.5-0.07,389.3,1.4
	c10.8,0.15,21.66,0.19,32.46,1.15c10.8,0.93,21.55,2.93,31.73,6.63c-10.31-3.31-21.05-4.95-31.8-5.63
	c-21.11-1.05-75.23,0.27-97.27,0.11c-85.18,0.71-174.46,1.14-259.56-0.48c-21.98,0.1-75.81-3.38-97.09,0.66
	C244.04,175.18,233.54,177.89,223.35,181.51L223.35,181.51z"/>
<path class="st7" d="M225.16,292.21c10.19,3.62,20.69,6.33,31.34,8c20.94,4.02,75.1,0.58,97.09,0.66
	c85.07-1.61,174.4-1.18,259.56-0.48c22.04-0.16,75.8,1.16,97.27,0.11c10.75-0.68,21.49-2.32,31.81-5.63
	c-10.18,3.7-20.93,5.7-31.73,6.63c-10.81,0.97-21.66,1-32.46,1.15c-128.8,1.47-260.5,0.37-389.3,1.4
	C267.06,304.07,245.29,300.34,225.16,292.21L225.16,292.21z"/>
</svg>
